<svg width="20" height="20" viewBox="0 0 20 20" fill="none" xmlns="http://www.w3.org/2000/svg">
<path d="M4.15603 9.50607C4.15604 9.39424 4.17811 9.2835 4.22096 9.18024C4.26382 9.07696 4.3266 8.98319 4.40572 8.9043C4.48485 8.82541 4.57875 8.76295 4.68203 8.72053C4.78531 8.6781 4.89594 8.65652 5.00757 8.65704L6.41934 8.66166C6.64444 8.66166 6.86032 8.75125 7.0195 8.91072C7.17867 9.07019 7.26809 9.28649 7.26809 9.51201V14.8608C7.42709 14.8136 7.63059 14.7632 7.85451 14.7104C8.00965 14.6738 8.14791 14.5858 8.24687 14.4606C8.34583 14.3355 8.39971 14.1805 8.39974 14.0208V7.38654C8.39974 7.16101 8.48915 6.9447 8.64832 6.78521C8.80749 6.6257 9.02338 6.53608 9.24849 6.53603H10.6645C10.8897 6.53608 11.1055 6.6257 11.2647 6.78521C11.4239 6.9447 11.5133 7.16101 11.5133 7.38654V13.5442C11.5133 13.5442 11.8675 13.4006 12.2124 13.2546C12.3406 13.2003 12.4499 13.1094 12.5268 12.9933C12.6038 12.8771 12.6448 12.7408 12.6449 12.6014V5.26059C12.6449 5.0351 12.7343 4.81884 12.8935 4.65936C13.0526 4.49989 13.2684 4.41028 13.4935 4.41023H14.9081C15.133 4.41047 15.3487 4.50014 15.5077 4.6596C15.6667 4.81905 15.756 5.03521 15.756 5.26059V11.3055C16.9825 10.415 18.2253 9.34395 19.2117 8.05613C19.3547 7.8692 19.4494 7.64969 19.4873 7.41717C19.5251 7.18465 19.505 6.94636 19.4285 6.72357C18.9719 5.40754 18.2461 4.20149 17.2977 3.1826C16.3491 2.16371 15.1988 1.35442 13.9202 0.806509C12.6416 0.258603 11.2629 -0.0158526 9.8724 0.000707134C8.48187 0.0172669 7.11009 0.324477 5.84486 0.902678C4.57962 1.48088 3.44881 2.31734 2.52474 3.35853C1.6007 4.39972 0.903758 5.62271 0.478538 6.94925C0.0533168 8.27577 -0.0908225 9.67665 0.0553422 11.0622C0.201507 12.4477 0.634757 13.7875 1.32737 14.9956C1.44804 15.204 1.62557 15.3736 1.83911 15.4845C2.05264 15.5953 2.29331 15.6428 2.53285 15.6213C2.80044 15.5977 3.13361 15.5643 3.52973 15.5178C3.70211 15.4981 3.86128 15.4156 3.97689 15.286C4.09251 15.1564 4.1565 14.9887 4.15669 14.8149V9.50607" fill="white"/>
<path d="M4.12598 18.0839C5.61704 19.1707 7.37912 19.8231 9.21725 19.9687C11.0554 20.1145 12.8979 19.7478 14.541 18.9095C16.1841 18.0712 17.5637 16.7938 18.5271 15.2187C19.4905 13.6436 20.0003 11.8321 20 9.98475C20 9.75363 19.9893 9.52614 19.974 9.29932C16.3221 14.7562 9.57929 17.3072 4.12598 18.0839Z" fill="#0052FF"/>
</svg>
