<svg width="500" height="500" viewBox="0 0 500 500" fill="none" xmlns="http://www.w3.org/2000/svg">
<g clip-path="url(#clip0_98_6)">
<path d="M250 500C388.071 500 500 388.071 500 250C500 111.929 388.071 0 250 0C111.929 0 0 111.929 0 250C0 388.071 111.929 500 250 500Z" fill="#FC6F6F"/>
<path fill-rule="evenodd" clip-rule="evenodd" d="M202.446 96.0144L202.445 172.304C216.387 164.124 232.643 159.431 250 159.431C300.411 159.431 341.529 199.016 343.663 248.648C343.711 248.648 343.75 248.687 343.75 248.735V339.1C343.75 351.857 333.409 362.198 320.652 362.198C307.896 362.198 297.554 351.857 297.554 339.1V248.82C297.554 248.726 297.478 248.649 297.383 248.649C297.383 248.649 297.384 248.649 297.383 248.649C295.316 224.417 274.891 205.391 250 205.391C225.413 205.391 205.184 223.956 202.702 247.765L202.626 248.564C202.621 248.612 202.58 248.649 202.532 248.649C202.484 248.648 202.446 248.686 202.446 248.734C202.446 248.733 202.446 248.734 202.446 248.734L202.446 339.1C202.446 351.857 192.104 362.198 179.348 362.198C166.591 362.198 156.25 351.857 156.25 339.1V96.0144C156.25 83.2578 166.591 72.9166 179.348 72.9166C192.104 72.9166 202.446 83.2579 202.446 96.0144C202.446 96.0145 202.446 96.0144 202.446 96.0144ZM179.348 427.083C192.104 427.083 202.446 416.795 202.446 404.103C202.446 391.411 192.104 381.123 179.348 381.123C166.591 381.123 156.25 391.411 156.25 404.103C156.25 416.795 166.591 427.083 179.348 427.083ZM320.652 427.083C333.409 427.083 343.75 416.795 343.75 404.103C343.75 391.411 333.409 381.123 320.652 381.123C307.896 381.123 297.554 391.411 297.554 404.103C297.554 416.795 307.896 427.083 320.652 427.083Z" fill="white"/>
</g>
<defs>
<clipPath id="clip0_98_6">
<rect width="500" height="500" fill="white"/>
</clipPath>
</defs>
</svg>
