<svg width="300" height="364" viewBox="0 0 300 364" fill="none" xmlns="http://www.w3.org/2000/svg">
<path d="M47.3684 292.105H300V0H47.3684C21.2479 0 0 21.2479 0 47.3684V319.089C0 343.39 21.2479 363.158 47.3684 363.158H300V347.368H47.3684C30.2529 347.368 15.7895 334.416 15.7895 319.089C15.7895 303.947 29.6669 292.105 47.3684 292.105Z" fill="#8B4513"/>
<path d="M129.746 186.622C127.559 186.713 125.553 186.804 123.73 186.895C121.999 186.895 120.312 186.895 118.672 186.895C117.122 186.895 115.573 186.895 114.023 186.895C112.565 186.895 111.016 186.85 109.375 186.758V211.505C109.375 216.609 109.284 221.531 109.102 226.27C108.919 230.919 108.646 234.428 108.281 236.798L132.07 235.977V257.579H48.9453V239.122C52.0443 238.939 54.8242 238.666 57.2852 238.301C59.8372 237.846 61.9336 236.843 63.5742 235.294C65.306 233.653 66.6276 231.238 67.5391 228.048C68.4505 224.857 68.9062 220.437 68.9062 214.786V107.462C68.9062 104.91 68.9062 102.403 68.9062 99.9421C68.9974 97.4811 69.0885 95.1569 69.1797 92.9694C69.2708 90.6908 69.362 88.64 69.4531 86.8171C69.6354 84.9942 69.8177 83.4903 70 82.3054L48.9453 83.1257V61.5241L128.652 60.9772C140.775 60.8861 151.758 62.0254 161.602 64.3952C171.536 66.765 180.013 70.4564 187.031 75.4694C194.049 80.3913 199.473 86.7259 203.301 94.4733C207.129 102.221 209.043 111.518 209.043 122.364C209.134 130.202 207.585 137.859 204.395 145.333C201.204 152.716 196.328 159.415 189.766 165.43C183.294 171.446 175.091 176.368 165.156 180.196C155.221 184.024 143.418 186.166 129.746 186.622ZM121.953 166.661C129.609 166.661 136.217 165.704 141.777 163.79C147.337 161.785 151.895 158.868 155.449 155.04C159.004 151.212 161.602 146.518 163.242 140.958C164.974 135.398 165.84 129.063 165.84 121.954C165.84 115.756 165.247 110.424 164.062 105.958C162.878 101.492 161.283 97.7546 159.277 94.7468C157.272 91.6478 154.948 89.1869 152.305 87.364C149.753 85.4499 147.064 84.0371 144.238 83.1257C141.504 82.1231 138.724 81.485 135.898 81.2116C133.164 80.847 130.612 80.6647 128.242 80.6647C125.234 80.6647 122.546 80.8926 120.176 81.3483C117.897 81.8041 115.938 82.8067 114.297 84.3561C112.747 85.9056 111.517 88.1387 110.605 91.0554C109.785 93.972 109.375 97.8913 109.375 102.813V165.841C111.38 166.023 113.431 166.205 115.527 166.387C117.624 166.57 119.766 166.661 121.953 166.661Z" fill="white"/>
<path d="M215.98 100.579V93.9871C217.087 93.922 218.08 93.8243 218.959 93.6941C219.87 93.5313 220.619 93.1733 221.205 92.6199C221.824 92.0339 222.296 91.1713 222.621 90.032C222.947 88.8927 223.109 87.3139 223.109 85.2957V46.9656C223.109 46.0541 223.109 45.1589 223.109 44.28C223.142 43.4011 223.174 42.571 223.207 41.7898C223.24 40.976 223.272 40.2436 223.305 39.5925C223.37 38.9415 223.435 38.4044 223.5 37.9812L215.98 38.2742V30.5593H244.691V37.1511C243.552 37.2162 242.543 37.3302 241.664 37.4929C240.785 37.6557 240.036 38.0138 239.418 38.5671C238.832 39.1205 238.376 39.9669 238.051 41.1062C237.725 42.2455 237.562 43.8243 237.562 45.8425V84.1726C237.562 85.0841 237.546 85.9792 237.514 86.8582C237.514 87.7045 237.497 88.5183 237.465 89.2996C237.432 90.0808 237.383 90.797 237.318 91.448C237.286 92.0665 237.237 92.5873 237.172 93.0105L250.6 92.9617C254.538 92.9617 257.631 91.6108 259.877 88.9089C262.123 86.1746 263.246 82.073 263.246 76.6042H269.887L269.301 100.579H215.98Z" fill="white"/>
</svg>
